<?xml version="1.0" encoding="UTF-8"?>
<svg version="1.1" xmlns="http://www.w3.org/2000/svg" width="217" height="216">
<path d="M0 0 C71.61 0 143.22 0 217 0 C217 71.28 217 142.56 217 216 C145.39 216 73.78 216 0 216 C0 144.72 0 73.44 0 0 Z " fill="#FEFEFE" transform="translate(0,0)"/>
<path d="M0 0 C4.05907604 1.13228893 8.11098664 2.28690557 12.15820312 3.46069336 C13.52957491 3.85523484 14.9025907 4.24411574 16.27734375 4.62670898 C29.22660726 8.23792538 40.74512649 12.80941443 49 24 C49.33 22.02 49.66 20.04 50 18 C51.33333333 19.33333333 52.66666667 20.66666667 54 22 C54.53625 22.474375 55.0725 22.94875 55.625 23.4375 C57.38468725 25.43714461 58.12332193 27.50483933 59 30 C59.66 30 60.32 30 61 30 C61.44810509 38.16547059 61.44220114 44.0001679 57 51 C56.67 51.33 56.34 51.66 56 52 C55.84379445 53.41327947 55.74943827 54.8335459 55.68359375 56.25390625 C55.64169922 57.10791016 55.59980469 57.96191406 55.55664062 58.84179688 C55.51732422 59.73962891 55.47800781 60.63746094 55.4375 61.5625 C55.37272461 62.91504883 55.37272461 62.91504883 55.30664062 64.29492188 C55.20021858 66.52978485 55.09820012 68.76476308 55 71 C56.32 71 57.64 71 59 71 C59 71.99 59 72.98 59 74 C60.98 74.495 60.98 74.495 63 75 C61.68 75 60.36 75 59 75 C58.71125 75.5775 58.4225 76.155 58.125 76.75 C57.08333333 78.83333333 56.04166667 80.91666667 55 83 C55.99 82.67 56.98 82.34 58 82 C58 83.65 58 85.3 58 87 C57.67 86.34 57.34 85.68 57 85 C56.34 85 55.68 85 55 85 C54.855625 85.94875 54.71125 86.8975 54.5625 87.875 C54 91 54 91 53 93 C52.77532169 94.53668865 52.59203195 96.07968054 52.4375 97.625 C52.31181641 98.85089844 52.31181641 98.85089844 52.18359375 100.1015625 C52.12300781 100.72804688 52.06242187 101.35453125 52 102 C53.32 101.67 54.64 101.34 56 101 C56.37125 99.39125 56.37125 99.39125 56.75 97.75 C57.99883146 94.00350563 59.02488658 92.47926118 62 90 C61.731875 90.66 61.46375 91.32 61.1875 92 C60.02175992 94.821331 60.02175992 94.821331 59.375 97.078125 C59.148125 97.79484375 58.92125 98.5115625 58.6875 99.25 C58.48511719 99.93578125 58.28273438 100.6215625 58.07421875 101.328125 C57.71972656 101.87984375 57.36523438 102.4315625 57 103 C55.35 103.33 53.7 103.66 52 104 C52 108.29 52 112.58 52 117 C49.03 116.67 46.06 116.34 43 116 C42.6278481 109.42531646 42.6278481 109.42531646 44.3125 107.5 C44.869375 107.005 45.42625 106.51 46 106 C47.14671134 103.71174269 48.05565174 101.38335513 49 99 C48.030625 99.495 47.06125 99.99 46.0625 100.5 C41.63368908 102.34089129 37.73530576 102.94552372 33 102 C25.84650442 98.93872469 21.13009853 95.13456065 18.10546875 87.84375 C17.3606105 85.9118802 16.67496091 83.95738665 16 82 C13.58354218 81.83312552 13.58354218 81.83312552 11 82 C8.74281815 84.25718185 8.31528094 85.75526959 7.3125 88.75 C4.89405967 94.9946295 1.32710129 98.02172356 -4.3125 101.375 C-10.00735037 102.69938381 -15.20287668 102.74363724 -20.625 100.5 C-21.40875 100.005 -22.1925 99.51 -23 99 C-22.18993474 100.64703306 -21.3768779 102.29259506 -20.5625 103.9375 C-20.11003906 104.85402344 -19.65757813 105.77054687 -19.19140625 106.71484375 C-18.19474606 108.90528904 -18.19474606 108.90528904 -17 110 C-16.95919217 111.99958364 -16.95745644 114.00045254 -17 116 C-21.455 116.495 -21.455 116.495 -26 117 C-26 112.71 -26 108.42 -26 104 C-27.65 103.67 -29.3 103.34 -31 103 C-32.0390625 101.328125 -32.0390625 101.328125 -32.625 99.25 C-33.37017041 96.71448508 -34.04600716 94.93209576 -35.54296875 92.72265625 C-37.40321689 89.24653574 -37.55834698 86.04364006 -37.6875 82.1875 C-37.72166016 81.49462891 -37.75582031 80.80175781 -37.79101562 80.08789062 C-37.87286344 78.39247151 -37.93812365 76.69626542 -38 75 C-35.525 74.505 -35.525 74.505 -33 74 C-33 73.01 -33 72.02 -33 71 C-31.02 70.505 -31.02 70.505 -29 70 C-28.86460719 67.10259378 -28.76573171 64.21154379 -28.6875 61.3125 C-28.64560547 60.49587891 -28.60371094 59.67925781 -28.56054688 58.83789062 C-28.44336072 53.49774707 -28.44336072 53.49774707 -31.51953125 49.16796875 C-32.33808594 48.45253906 -33.15664063 47.73710938 -34 47 C-34 45.68 -34 44.36 -34 43 C-34.66 42.01 -35.32 41.02 -36 40 C-34.35 40 -32.7 40 -31 40 C-33.39509338 37.10067643 -35.31245243 36.49831724 -39 36 C-38.34 35.484375 -37.68 34.96875 -37 34.4375 C-33.24666356 31.38791415 -29.62397965 28.2013319 -26 25 C-26.66 24.21625 -27.32 23.4325 -28 22.625 C-30 20 -30 20 -30 18 C-28.68 17.67 -27.36 17.34 -26 17 C-26.33 16.0925 -26.66 15.185 -27 14.25 C-28 11 -28 11 -28 7 C-18.1 6.67 -8.2 6.34 2 6 C1.34 4.02 0.68 2.04 0 0 Z " fill="#0F0F0F" transform="translate(97,13)"/>
<path d="M0 0 C0.99 0.33 1.98 0.66 3 1 C3.02320313 1.73863281 3.04640625 2.47726563 3.0703125 3.23828125 C4.42426447 7.26031505 7.27571638 8.38960669 10.875 10.1875 C11.88361084 10.71065796 11.88361084 10.71065796 12.91259766 11.24438477 C17.845172 13.69427297 22.52638515 15.10558175 28.0234375 15.74609375 C30 16 30 16 31 17 C35.06815373 15.15083921 38.0094833 13.33557632 41 10 C40.5205537 14.21912747 39.83374881 16.79663178 37 20 C37.99 20.99 37.99 20.99 39 22 C38.34515625 22.29519531 37.6903125 22.59039062 37.015625 22.89453125 C34.1929493 25.84302389 34.58821176 28.05773574 34.6484375 32.01757812 C34.68195313 32.89865234 34.71546875 33.77972656 34.75 34.6875 C34.76804687 35.58017578 34.78609375 36.47285156 34.8046875 37.39257812 C34.85182241 39.59613504 34.91759343 41.79752601 35 44 C34.67 44 34.34 44 34 44 C33.87882812 44.62648437 33.75765625 45.25296875 33.6328125 45.8984375 C33.46523437 46.71570313 33.29765625 47.53296875 33.125 48.375 C32.96257812 49.18710938 32.80015625 49.99921875 32.6328125 50.8359375 C32 53 32 53 30 55 C28.6953199 56.95702015 27.42257633 58.93582457 26.1875 60.9375 C24.0447712 63.93732032 21.97110138 65.85420456 19 68 C19.495 66.329375 19.495 66.329375 20 64.625 C21.45575237 58.83296396 21.90247053 52.70741158 20 47 C20.04640625 47.99 20.0928125 48.98 20.140625 50 C20.63515015 64.6777296 20.63515015 64.6777296 16 70 C12.81196447 72.88322336 9.49114045 75.49490685 6 78 C5.01 77.505 5.01 77.505 4 77 C4.33 76.34 4.66 75.68 5 75 C-0.67901143 80.52732152 -0.67901143 80.52732152 -5.875 86.5 C-6.57625 87.325 -7.2775 88.15 -8 89 C-8.66 89 -9.32 89 -10 89 C-10 88.34 -10 87.68 -10 87 C-8.948125 86.01 -8.948125 86.01 -7.875 85 C-1.90390614 79.25068963 1.8767091 72.14212862 2.04296875 63.859375 C2.06004133 61.9062721 2.03367047 59.95288728 2 58 C1.92523438 58.89460938 1.85046875 59.78921875 1.7734375 60.7109375 C0.84959192 69.20669393 -0.99932804 75.0833097 -6 82 C-6.66 82.99 -7.32 83.98 -8 85 C-8.66 85 -9.32 85 -10 85 C-17.20882227 76.3970187 -19.25769711 68.97826913 -20 58 C-20.68158788 66.8985084 -18.99922282 73.83441275 -13.75 81.125 C-13.1725 81.74375 -12.595 82.3625 -12 83 C-12.33 83.66 -12.66 84.32 -13 85 C-15.97 82.03 -18.94 79.06 -22 76 C-21.67 76.99 -21.34 77.98 -21 79 C-25.02408469 77.58317163 -28.13416919 75.65214232 -31.5625 73.125 C-32.49191406 72.44695312 -33.42132813 71.76890625 -34.37890625 71.0703125 C-36.77840095 69.17503353 -38.8880371 67.20541258 -41 65 C-41.556875 64.46375 -42.11375 63.9275 -42.6875 63.375 C-46.53504821 59.34423521 -45.29209604 52.62319556 -45.234375 47.37890625 C-45.06047904 42.19881326 -43.84403626 37.84059518 -42 33 C-43.32 37.29 -44.64 41.58 -46 46 C-46.33 46 -46.66 46 -47 46 C-47 43.36 -47 40.72 -47 38 C-48.2062252 41.61867559 -48.10816918 44.92506251 -48.0625 48.6875 C-48.05798828 49.38939453 -48.05347656 50.09128906 -48.04882812 50.81445312 C-48.03706927 52.54300538 -48.01913454 54.27151365 -48 56 C-50.58548628 53.41451372 -50.97641847 51.70461615 -51.09765625 48.08203125 C-51.08605469 47.00308594 -51.07445313 45.92414063 -51.0625 44.8125 C-51.05347656 43.72582031 -51.04445313 42.63914063 -51.03515625 41.51953125 C-51.02355469 40.68808594 -51.01195313 39.85664063 -51 39 C-51.33 39.99 -51.66 40.98 -52 42 C-52.33 42 -52.66 42 -53 42 C-53.02709444 39.91673869 -53.04643873 37.83337559 -53.0625 35.75 C-53.07410156 34.58984375 -53.08570312 33.4296875 -53.09765625 32.234375 C-53.01782092 29.59022872 -52.78643778 27.50173909 -52 25 C-52.639375 24.71125 -53.27875 24.4225 -53.9375 24.125 C-56 23 -56 23 -57 21 C-56.34 20.67 -55.68 20.34 -55 20 C-55.99 18.9171875 -55.99 18.9171875 -57 17.8125 C-59.1535853 14.78402067 -59.41176754 13.60296594 -59 10 C-58.54109375 10.42152344 -58.0821875 10.84304687 -57.609375 11.27734375 C-56.99578125 11.82519531 -56.3821875 12.37304688 -55.75 12.9375 C-55.14671875 13.48277344 -54.5434375 14.02804688 -53.921875 14.58984375 C-51.91532695 16.06212799 -50.42997551 16.57529189 -48 17 C-48 16.67 -48 16.34 -48 16 C-46.20991533 15.77848451 -44.41781838 15.57317787 -42.625 15.375 C-41.62726563 15.25898438 -40.62953125 15.14296875 -39.6015625 15.0234375 C-38.74304688 15.01570312 -37.88453125 15.00796875 -37 15 C-36.34 15.66 -35.68 16.32 -35 17 C-34.95746094 16.41089844 -34.91492188 15.82179687 -34.87109375 15.21484375 C-33.24477604 11.07976689 -28.56368595 9.81996263 -24.78515625 7.87890625 C-21.70020133 5.79775153 -20.96275029 4.5300844 -20 1 C-19.505 1.99 -19.505 1.99 -19 3 C-19.33 3.66 -19.66 4.32 -20 5 C-19.2575 4.938125 -18.515 4.87625 -17.75 4.8125 C-15 5 -15 5 -13 6.5625 C-11.06168139 8.2798842 -11.06168139 8.2798842 -8.4375 7.8125 C-5.78621711 7.04750731 -5.78621711 7.04750731 -3 5 C-0.3125 4.875 -0.3125 4.875 2 5 C1.34 3.35 0.68 1.7 0 0 Z " fill="#0F0F0F" transform="translate(119,115)"/>
<path d="M0 0 C10.86473042 -0.49635824 20.27752343 -0.16588644 30.12890625 5.1484375 C33.65652279 6.75390808 37.40117894 5.40892923 41.03125 4.48046875 C47.25086133 2.91429851 53.65000642 1.57889662 60 3 C63.35942076 5.44880854 64.8265002 8.04146611 66 12 C66.16721294 16.43874346 65.69098308 20.62167993 65 25 C65 25.66 65 26.32 65 27 C63.76636719 27.05607422 63.76636719 27.05607422 62.5078125 27.11328125 C60.83332031 27.21189453 60.83332031 27.21189453 59.125 27.3125 C58.03445312 27.37050781 56.94390625 27.42851563 55.8203125 27.48828125 C52.67197065 27.90999166 50.23629348 28.52915644 47.26171875 29.5234375 C41.6849126 31.27860934 36.49709787 31.41177543 30.6875 31.3125 C29.72521484 31.31572266 28.76292969 31.31894531 27.77148438 31.32226562 C22.94898083 31.28555453 19.44730051 30.93579909 15 29 C11.9112194 28.47280806 8.80549826 28.17523346 5.6875 27.875 C4.85154297 27.78863281 4.01558594 27.70226562 3.15429688 27.61328125 C1.1035237 27.40234458 -0.94815903 27.20028354 -3 27 C-2.81566406 26.08089844 -2.63132812 25.16179687 -2.44140625 24.21484375 C-1.90379732 20.299338 -2.87737284 17.76410282 -4 14 C-4.65105004 7.92353292 -3.23327036 4.95094524 0 0 Z " fill="#FCFCFC" transform="translate(79,56)"/>
<path d="M0 0 C0.78375 0.04125 1.5675 0.0825 2.375 0.125 C2.61734375 0.70507812 2.8596875 1.28515625 3.109375 1.8828125 C6.42162386 9.60290023 9.22539226 15.27448193 16.94140625 19.21484375 C23.24143102 21.57103279 29.19918388 20.22740549 35.375 18.125 C34.95242724 19.6085001 34.51143678 21.08676424 34.0625 22.5625 C33.81886719 23.38621094 33.57523437 24.20992187 33.32421875 25.05859375 C33.01097656 25.74050781 32.69773437 26.42242187 32.375 27.125 C30.89 27.62 30.89 27.62 29.375 28.125 C29.375 30.435 29.375 32.745 29.375 35.125 C33.995 35.125 38.615 35.125 43.375 35.125 C43.705 35.785 44.035 36.445 44.375 37.125 C39.72650485 39.5242233 35.46413926 39.32457409 30.375 39.125 C30.375 38.465 30.375 37.805 30.375 37.125 C29.25480469 36.57070312 28.13460937 36.01640625 26.98046875 35.4453125 C25.50775962 34.71364809 24.03510628 33.98187139 22.5625 33.25 C21.82451172 32.88519531 21.08652344 32.52039063 20.32617188 32.14453125 C19.61396484 31.79003906 18.90175781 31.43554688 18.16796875 31.0703125 C17.5133667 30.74562988 16.85876465 30.42094727 16.18432617 30.08642578 C14.375 29.125 14.375 29.125 11.375 27.125 C10.6875 24.5 10.6875 24.5 10.375 22.125 C10.375 22.455 10.375 22.785 10.375 23.125 C10.375 24.115 10.375 25.105 10.375 26.125 C8.9828125 26.558125 8.9828125 26.558125 7.5625 27 C4.27708333 28.0125 4.27708333 28.0125 1.375 30.125 C-2.08918389 29.77858161 -3.67429881 29.09213413 -6.625 27.125 C-8.28049531 26.74000109 -9.9472433 26.39706865 -11.625 26.125 C-11.625 25.135 -11.625 24.145 -11.625 23.125 C-11.851875 23.88167969 -12.07875 24.63835937 -12.3125 25.41796875 C-13.92214977 28.7378714 -15.43956193 29.64569109 -18.625 31.4375 C-19.511875 31.94925781 -20.39875 32.46101563 -21.3125 32.98828125 C-23.625 34.125 -23.625 34.125 -25.625 34.125 C-25.955 35.445 -26.285 36.765 -26.625 38.125 C-28.275 37.795 -29.925 37.465 -31.625 37.125 C-31.625 37.785 -31.625 38.445 -31.625 39.125 C-33.04123216 39.17947047 -34.45808191 39.21800508 -35.875 39.25 C-36.66390625 39.27320313 -37.4528125 39.29640625 -38.265625 39.3203125 C-40.83231941 39.1078378 -42.4166067 38.41154105 -44.625 37.125 C-44.625 36.465 -44.625 35.805 -44.625 35.125 C-40.005 35.125 -35.385 35.125 -30.625 35.125 C-31.83065325 30.302387 -33.46341791 26.20253754 -35.8203125 21.82421875 C-36.625 20.125 -36.625 20.125 -36.625 18.125 C-35.84125 18.455 -35.0575 18.785 -34.25 19.125 C-28.03096899 20.84059476 -22.18437814 21.18718665 -16.25 18.375 C-10.05787052 14.76914146 -7.94790229 11.03258736 -5.5546875 4.3671875 C-4.23926925 1.1947082 -3.50569958 0.16693808 0 0 Z " fill="#F7F7F7" transform="translate(110.625,93.875)"/>
<path d="M0 0 C2.38300318 1.29981992 3.57603243 2.42129851 4.67578125 4.9140625 C4.86328125 7.6640625 4.86328125 7.6640625 4.67578125 9.9140625 C4.42828125 9.3365625 4.18078125 8.7590625 3.92578125 8.1640625 C2.21850502 5.09096529 0.32181413 2.4796597 -3.09765625 1.3046875 C-5.7925097 0.83190619 -8.33938172 0.81900492 -11.07421875 0.8515625 C-12.0590625 0.86058594 -13.04390625 0.86960937 -14.05859375 0.87890625 C-15.18007812 0.89630859 -15.18007812 0.89630859 -16.32421875 0.9140625 C-16.32421875 1.2440625 -16.32421875 1.5740625 -16.32421875 1.9140625 C-14.40609375 1.8521875 -14.40609375 1.8521875 -12.44921875 1.7890625 C-10.26953125 1.71875 -10.26953125 1.71875 -8.32421875 1.9140625 C-7.66421875 2.5740625 -7.00421875 3.2340625 -6.32421875 3.9140625 C-8.96421875 4.5740625 -11.60421875 5.2340625 -14.32421875 5.9140625 C-13.66421875 5.9140625 -13.00421875 5.9140625 -12.32421875 5.9140625 C-11.66421875 5.9140625 -11.00421875 5.9140625 -10.32421875 5.9140625 C-10.32421875 6.9040625 -10.32421875 7.8940625 -10.32421875 8.9140625 C-7.35421875 9.4090625 -7.35421875 9.4090625 -4.32421875 9.9140625 C-4.32421875 8.2640625 -4.32421875 6.6140625 -4.32421875 4.9140625 C-2.34421875 5.5740625 -0.36421875 6.2340625 1.67578125 6.9140625 C2.00090475 11.57416606 1.72518285 14.2928981 -1.32421875 17.9140625 C-6.51843034 21.57986241 -11.05190297 22.63383644 -17.32421875 21.9140625 C-21.89366319 19.77517361 -21.89366319 19.77517361 -23.32421875 16.9140625 C-23.79896008 10.87491115 -23.31009996 5.62347099 -21.32421875 -0.0859375 C-22.64421875 0.2440625 -23.96421875 0.5740625 -25.32421875 0.9140625 C-25.65421875 4.2140625 -25.98421875 7.5140625 -26.32421875 10.9140625 C-26.65421875 10.9140625 -26.98421875 10.9140625 -27.32421875 10.9140625 C-27.45945905 9.31221624 -27.55632722 7.70709624 -27.63671875 6.1015625 C-27.69472656 5.20824219 -27.75273438 4.31492187 -27.8125 3.39453125 C-27.32421875 0.9140625 -27.32421875 0.9140625 -25.2578125 -0.88671875 C-17.80190536 -3.93460622 -7.40131182 -2.98282623 0 0 Z " fill="#EAEAEA" transform="translate(98.32421875,89.0859375)"/>
<path d="M0 0 C1.21945313 -0.01417969 2.43890625 -0.02835937 3.6953125 -0.04296875 C6.875 0.1875 6.875 0.1875 9.875 2.1875 C9.215 2.1875 8.555 2.1875 7.875 2.1875 C8.1225 3.5796875 8.1225 3.5796875 8.375 5 C10.17734219 18.38102535 10.17734219 18.38102535 6.9375 22.875 C1.63308108 25.14832239 -2.96021729 24.93684786 -8.375 23.0625 C-11.80949086 20.72080169 -13.74916935 18.61149123 -16.125 15.1875 C-16.125 13.8675 -16.125 12.5475 -16.125 11.1875 C-12.165 11.1875 -8.205 11.1875 -4.125 11.1875 C-4.125 10.1975 -4.125 9.2075 -4.125 8.1875 C-2.475 8.5175 -0.825 8.8475 0.875 9.1875 C0.875 8.5275 0.875 7.8675 0.875 7.1875 C-2.095 6.8575 -5.065 6.5275 -8.125 6.1875 C-6.125 4.1875 -6.125 4.1875 -3.7421875 3.9921875 C-2.83726562 4.01539062 -1.93234375 4.03859375 -1 4.0625 C-0.08992188 4.08054687 0.82015625 4.09859375 1.7578125 4.1171875 C2.45648438 4.14039062 3.15515625 4.16359375 3.875 4.1875 C-0.76539078 1.86730461 -7.30604888 2.76791608 -12.1875 4.125 C-14.97851136 4.8995334 -14.97851136 4.8995334 -16.125 6.1875 C-16.35575082 7.53497084 -16.53653063 8.89127565 -16.6875 10.25 C-16.831875 11.549375 -16.97625 12.84875 -17.125 14.1875 C-17.455 14.1875 -17.785 14.1875 -18.125 14.1875 C-18.47965266 11.1138436 -18.63697621 8.24880105 -18.125 5.1875 C-12.7485414 0.18614317 -7.05687048 0.03745685 0 0 Z " fill="#EFEFEF" transform="translate(136.125,86.8125)"/>
<path d="M0 0 C0.85207031 0.07863281 1.70414063 0.15726562 2.58203125 0.23828125 C5.1875 0.6875 5.1875 0.6875 7.34375 1.7109375 C11.79581122 3.23980468 16.20214386 3.01564922 20.875 3 C22.28942383 3.02416992 22.28942383 3.02416992 23.73242188 3.04882812 C29.61171848 3.05286888 34.54720499 2.26864746 40.10473633 0.33276367 C42.1875 -0.3125 42.1875 -0.3125 45.1875 -0.3125 C45.6825 1.6675 45.6825 1.6675 46.1875 3.6875 C44.83205078 3.97753906 44.83205078 3.97753906 43.44921875 4.2734375 C41.67998047 4.66402344 41.67998047 4.66402344 39.875 5.0625 C38.70324219 5.31773438 37.53148437 5.57296875 36.32421875 5.8359375 C33.05829555 6.54445531 33.05829555 6.54445531 30.1875 8.6875 C29.23846243 13.44123772 29.73266472 17.66412062 31.6875 22.0625 C35.65821302 26.23174867 39.3382242 28.45475283 45.15234375 28.9296875 C47.84380903 28.93661534 50.50240151 28.86519034 53.1875 28.6875 C53.1875 29.3475 53.1875 30.0075 53.1875 30.6875 C48.07748488 32.39083837 43.55605631 32.68824967 38.515625 30.55859375 C30.2795049 25.89227127 27.19710886 20.41536568 24.1875 11.6875 C21.77104218 11.52062552 21.77104218 11.52062552 19.1875 11.6875 C17.08967213 13.78532787 16.5365604 15.0674207 15.5625 17.8125 C15.30210938 18.53695312 15.04171875 19.26140625 14.7734375 20.0078125 C14.58007812 20.56210938 14.38671875 21.11640625 14.1875 21.6875 C13.1975 21.3575 12.2075 21.0275 11.1875 20.6875 C11.5175 20.15125 11.8475 19.615 12.1875 19.0625 C13.4581326 16.04474758 13.52604923 13.93757259 13.1875 10.6875 C12.31644624 8.30298201 12.31644624 8.30298201 10.1875 6.6875 C4.61062026 4.86059112 -0.98201259 4.20036695 -6.8125 3.6875 C-6.8125 2.6975 -6.8125 1.7075 -6.8125 0.6875 C-4.2696554 -0.5839223 -2.81494154 -0.28276024 0 0 Z " fill="#0F0F0F" transform="translate(88.8125,83.3125)"/>
<path d="M0 0 C2.0625 1.375 2.0625 1.375 4 4 C4.53888867 10.48959552 2.74612523 16.70462976 -1 22 C-4.53950298 25.23611701 -8.02404924 25.52140986 -12.65625 25.3515625 C-17.9436295 24.55845557 -21.78778185 22.27438318 -25.4375 18.4375 C-28.06479699 14.3389167 -28.1768057 11.51324821 -27.50390625 6.87109375 C-27 5 -27 5 -25.25 3.0625 C-20.00555757 0.58595774 -13.72182295 0.18536758 -8 1 C-7.01 1.99 -6.02 2.98 -5 4 C-8.63 4 -12.26 4 -16 4 C-14.865625 4.268125 -13.73125 4.53625 -12.5625 4.8125 C-11.386875 5.204375 -10.21125 5.59625 -9 6 C-8.67 6.99 -8.34 7.98 -8 9 C-10.16874252 8.49396008 -11.99967627 8.00016187 -14 7 C-14 7.66 -14 8.32 -14 9 C-13.34 9.33 -12.68 9.66 -12 10 C-14.83556587 11.41778293 -16.9908706 10.86257622 -20.125 10.5625 C-21.76855469 10.40974609 -21.76855469 10.40974609 -23.4453125 10.25390625 C-24.28835937 10.17011719 -25.13140625 10.08632812 -26 10 C-24.13478767 15.10479164 -22.70401937 17.94238741 -18 21 C-15.25570004 21.91476665 -13.40966906 22.19238444 -10.5625 22.25 C-9.80066406 22.27578125 -9.03882813 22.3015625 -8.25390625 22.328125 C-5.1707259 21.87927379 -4.02940197 21.41420957 -2 19 C-1.50360252 15.92536289 -1.62517027 12.91643919 -1.75 9.8125 C-1.76804688 8.96751953 -1.78609375 8.12253906 -1.8046875 7.25195312 C-1.85179414 5.16748427 -1.92353767 3.08359856 -2 1 C-1.34 0.67 -0.68 0.34 0 0 Z " fill="#7C7C7C" transform="translate(146,88)"/>
<path d="M0 0 C-0.165 0.94875 -0.33 1.8975 -0.5 2.875 C-1.85306702 11.84320281 -1.85306702 11.84320281 1 20 C6.50929538 21.83643179 11.15926469 21.6726093 16.375 19.25 C19.5127684 17.67486527 20.7119429 16.2696834 22 13 C22.38290462 11.00889599 22.72604615 9.00899487 23 7 C20.525 6.505 20.525 6.505 18 6 C17.67 7.32 17.34 8.64 17 10 C14.125 10.125 14.125 10.125 11 10 C10.34 9.34 9.68 8.68 9 8 C9.66 8 10.32 8 11 8 C11 7.34 11 6.68 11 6 C9.02 6.66 7.04 7.32 5 8 C7.78407039 4.91763635 8.80825346 4.04793663 13 3 C9.7 3 6.4 3 3 3 C3.66 2.01 4.32 1.02 5 0 C11.33525791 -1.07163567 17.59478353 -0.49086897 23 3 C25.0625 6.375 25.0625 6.375 26 10 C25.1875 12.9375 25.1875 12.9375 24 15 C24.66 15.66 25.32 16.32 26 17 C23.64031758 18.57312161 21.54270222 19.79927951 19 21 C17.9275 21.53625 16.855 22.0725 15.75 22.625 C10.59396121 24.51554756 6.46377233 25.06390169 1.25 22.8125 C-2.99991071 19.38896082 -5.30586427 16.44138581 -6 11 C-5.73046875 8.359375 -5.73046875 8.359375 -5.1875 5.75 C-5.01605469 4.87859375 -4.84460938 4.0071875 -4.66796875 3.109375 C-4.44753906 2.41328125 -4.22710937 1.7171875 -4 1 C-2 0 -2 0 0 0 Z " fill="#6A6A6A" transform="translate(77,89)"/>
<path d="M0 0 C8.50868923 1.37236923 16.04149323 4.56096849 22 11 C21.67 11.66 21.34 12.32 21 13 C21.2475 13.8353125 21.2475 13.8353125 21.5 14.6875 C22.20234758 17.93585758 21.5616404 20.75496661 21 24 C20.67 23.01 20.34 22.02 20 21 C18.68 21 17.36 21 16 21 C15.67 21.99 15.34 22.98 15 24 C14.34 22.68 13.68 21.36 13 20 C12.34 20 11.68 20 11 20 C11.144375 19.29875 11.28875 18.5975 11.4375 17.875 C10.8466676 13.99238708 9.22484244 12.8717437 6.22265625 10.4921875 C2.36229056 7.90051844 -1.77445073 5.92147713 -6 4 C-3 3 -3 3 -0.51953125 3.99609375 C0.37378906 4.47175781 1.26710938 4.94742187 2.1875 5.4375 C3.08855469 5.91058594 3.98960938 6.38367188 4.91796875 6.87109375 C5.60503906 7.24363281 6.29210937 7.61617187 7 8 C6.34 7.01 5.68 6.02 5 5 C5.66 5 6.32 5 7 5 C7 4.34 7 3.68 7 3 C4.69 2.34 2.38 1.68 0 1 C0 0.67 0 0.34 0 0 Z " fill="#505050" transform="translate(121,25)"/>
<path d="M0 0 C0.78890625 0.03609375 1.5778125 0.0721875 2.390625 0.109375 C2.3184375 0.77324219 2.24625 1.43710938 2.171875 2.12109375 C2.0790625 3.00410156 1.98625 3.88710937 1.890625 4.796875 C1.7978125 5.66699219 1.705 6.53710938 1.609375 7.43359375 C1.33462631 10.10855297 1.33462631 10.10855297 1.5078125 12.79296875 C1.32801541 16.34695784 -1.15388343 17.65388343 -3.609375 20.109375 C-4.57896632 22.44321541 -5.07310957 24.62305348 -5.609375 27.109375 C-6.929375 27.109375 -8.249375 27.109375 -9.609375 27.109375 C-10.01305795 20.65044786 -9.2009012 16.04828922 -6.609375 10.109375 C-5.949375 10.109375 -5.289375 10.109375 -4.609375 10.109375 C-4.609375 9.449375 -4.609375 8.789375 -4.609375 8.109375 C-5.269375 8.109375 -5.929375 8.109375 -6.609375 8.109375 C-5.85727755 3.8976293 -4.70754192 0.19732212 0 0 Z " fill="#D5D5D5" transform="translate(158.609375,87.890625)"/>
<path d="M0 0 C2.39546038 0.31939472 3.80949349 0.85712012 5.75 2.3125 C7 4 7 4 7 8 C6.34 8 5.68 8 5 8 C5 8.66 5 9.32 5 10 C5.66 10 6.32 10 7 10 C9.5915262 15.93891422 10.40368295 20.54107286 10 27 C8.35 26.67 6.7 26.34 5 26 C4.731875 24.948125 4.46375 23.89625 4.1875 22.8125 C3.21491856 19.08353691 3.21491856 19.08353691 1.375 16.5 C-0.44307653 13.19440632 -0.13103639 10.73453721 0 7 C-0.185625 5.88625 -0.37125 4.7725 -0.5625 3.625 C-0.706875 2.75875 -0.85125 1.8925 -1 1 C-0.67 0.67 -0.34 0.34 0 0 Z " fill="#EBEBEB" transform="translate(61,88)"/>
<path d="M0 0 C0.99 0.99 1.98 1.98 3 3 C-0.63 3 -4.26 3 -8 3 C-6.865625 3.268125 -5.73125 3.53625 -4.5625 3.8125 C-3.386875 4.204375 -2.21125 4.59625 -1 5 C-0.67 5.99 -0.34 6.98 0 8 C-2.16874252 7.49396008 -3.99967627 7.00016187 -6 6 C-6 6.66 -6 7.32 -6 8 C-5.34 8.33 -4.68 8.66 -4 9 C-6.94386623 10.47193312 -9.37390036 9.84936173 -12.625 9.5625 C-13.81351562 9.46066406 -15.00203125 9.35882813 -16.2265625 9.25390625 C-17.14179687 9.17011719 -18.05703125 9.08632812 -19 9 C-19.10546875 6.609375 -19.10546875 6.609375 -19 4 C-14.32053088 -0.85278279 -6.34331795 -0.90311645 0 0 Z " fill="#1A1A1A" transform="translate(138,89)"/>
<path d="M0 0 C2.96358359 0.41352329 5.6081608 0.83501508 8.375 2 C11.90969795 3.3465516 15.23934616 3.61756063 19 4 C19 4.33 19 4.66 19 5 C17.58456585 5.19658808 16.16755969 5.38187546 14.75 5.5625 C13.96109375 5.66691406 13.1721875 5.77132812 12.359375 5.87890625 C9.99467126 6.00027349 8.2488963 5.69633257 6 5 C8.475 5.99 8.475 5.99 11 7 C10.67 7.66 10.34 8.32 10 9 C12.97 9.33 15.94 9.66 19 10 C19 10.33 19 10.66 19 11 C17.35 11.33 15.7 11.66 14 12 C14 12.33 14 12.66 14 13 C6.97778489 13.51382062 1.80221829 10.69232073 -4 7 C-3.34 5.35 -2.68 3.7 -2 2 C-1.01 2.33 -0.02 2.66 1 3 C0.67 2.01 0.34 1.02 0 0 Z " fill="#232323" transform="translate(130,127)"/>
<path d="M0 0 C6.46591348 -1.09373661 12.35134282 -0.24497327 18 3 C20 6 20 6 19.625 8.1875 C19.315625 9.0846875 19.315625 9.0846875 19 10 C18.67 9.01 18.34 8.02 18 7 C15.525 6.505 15.525 6.505 13 6 C12.67 7.32 12.34 8.64 12 10 C9.125 10.125 9.125 10.125 6 10 C5.34 9.34 4.68 8.68 4 8 C4.66 8 5.32 8 6 8 C6 7.34 6 6.68 6 6 C4.02 6.66 2.04 7.32 0 8 C2.78407039 4.91763635 3.80825346 4.04793663 8 3 C4.7 3 1.4 3 -2 3 C-1.34 2.01 -0.68 1.02 0 0 Z " fill="#131313" transform="translate(82,89)"/>
<path d="M0 0 C0.33 0 0.66 0 1 0 C3.05873081 8.23492326 2.56146704 16.45108142 -1.62109375 23.87890625 C-6.23295455 31.23295455 -6.23295455 31.23295455 -9 34 C-10.875 34.0625 -10.875 34.0625 -13 33 C-14.48725321 30.67616687 -15.7478606 28.44143011 -17 26 C-17.72473126 24.76821295 -18.45375546 23.53893943 -19.1875 22.3125 C-21.53917755 18.01460655 -22.15076806 14.80815551 -22.1875 9.9375 C-22.20167969 9.08027344 -22.21585937 8.22304687 -22.23046875 7.33984375 C-22 5 -22 5 -20 2 C-19.96261719 2.9178125 -19.92523438 3.835625 -19.88671875 4.78125 C-19.3212489 15.33668728 -18.04254261 22.00576244 -11 30 C-11 30.66 -11 31.32 -11 32 C-10.34 32 -9.68 32 -9 32 C-8.72285156 31.4328125 -8.44570312 30.865625 -8.16015625 30.28125 C-6.5911452 27.19605656 -4.85075124 24.21613865 -3.12109375 21.21875 C-0.85102105 16.72606257 -0.72364566 12.21298538 -0.4375 7.25 C-0.39431641 6.55261719 -0.35113281 5.85523438 -0.30664062 5.13671875 C-0.20110404 3.42468078 -0.1001009 1.71236439 0 0 Z " fill="#BBBBBB" transform="translate(120,168)"/>
<path d="M0 0 C0.33 0 0.66 0 1 0 C1 4.95 1 9.9 1 15 C0.67 15 0.34 15 0 15 C-0.12117187 15.62648437 -0.24234375 16.25296875 -0.3671875 16.8984375 C-0.61855469 18.12433594 -0.61855469 18.12433594 -0.875 19.375 C-1.03742188 20.18710938 -1.19984375 20.99921875 -1.3671875 21.8359375 C-2 24 -2 24 -4 26 C-4.08564209 25.42032471 -4.17128418 24.84064941 -4.25952148 24.2434082 C-4.65087717 21.59957725 -5.04417081 18.95603804 -5.4375 16.3125 C-5.57220703 15.40048828 -5.70691406 14.48847656 -5.84570312 13.54882812 C-5.97783203 12.66259766 -6.10996094 11.77636719 -6.24609375 10.86328125 C-6.36654053 10.05157471 -6.4869873 9.23986816 -6.61108398 8.40356445 C-7.01276092 5.92113544 -7.49212777 3.46270121 -8 1 C-5.48916886 2.25541557 -5.12874554 3.50063488 -4 6 C-3.67 4.68 -3.34 3.36 -3 2 C-2.34 2.33 -1.68 2.66 -1 3 C-0.67 2.01 -0.34 1.02 0 0 Z " fill="#7E7E7E" transform="translate(153,144)"/>
<path d="M0 0 C2.39023022 2.17169488 3.75805012 4.2081227 5.125 7.125 C6.28130007 9.75882236 6.28130007 9.75882236 8 12 C8.04080783 13.99958364 8.04254356 16.00045254 8 18 C5.03 18.33 2.06 18.66 -1 19 C-1.02705308 16.58325776 -1.04686438 14.1668206 -1.0625 11.75 C-1.07087891 11.06808594 -1.07925781 10.38617188 -1.08789062 9.68359375 C-1.10428392 6.30657446 -1.05628768 3.22708361 0 0 Z " fill="#0B0B0B" transform="translate(72,111)"/>
<path d="M0 0 C1.918125 0.4021875 1.918125 0.4021875 3.875 0.8125 C7.36968895 1.52641503 10.86269579 2.14094302 14.390625 2.66015625 C15.16937988 2.77834717 15.94813477 2.89653809 16.75048828 3.01831055 C18.29931139 3.25096843 19.84977916 3.47299984 21.40185547 3.68286133 C28.27525555 4.73214926 34.46995847 6.74819154 38.9375 12.3125 C41.20949754 15.8348586 41.74594723 18.8504714 42 23 C40.39276219 20.58914328 39.45267785 18.68619233 38.375 16.0625 C36.08917131 11.32507642 32.79535208 9.76915902 28 8 C28.99 9.485 28.99 9.485 30 11 C27.34716996 9.98568263 24.86012365 8.92321328 22.3671875 7.5546875 C18.38434845 5.71574325 14.52538766 4.82851132 10.25 3.9375 C2.26713603 2.26713603 2.26713603 2.26713603 0 0 Z " fill="#B5B5B5" transform="translate(79,29)"/>
<path d="M0 0 C2.6855594 2.6855594 3.06049974 5.37621328 4 9 C4 6.36 4 3.72 4 1 C8.1005497 7.15082454 7.59754573 13.82945121 7 21 C6.00915094 24.23648514 4.72355849 27.09149505 3 30 C1.80515777 26.41547332 1.97614652 23.22010809 2.0625 19.5 C2.15388373 12.79243407 1.5545834 6.55145861 0 0 Z " fill="#B5B5B5" transform="translate(139,149)"/>
<path d="M0 0 C0.33 0 0.66 0 1 0 C1.09796875 0.85722656 1.1959375 1.71445313 1.296875 2.59765625 C2.4697952 11.56645124 3.95096292 17.86051609 11 24 C11.99 24.66 12.98 25.32 14 26 C13.34 26.66 12.68 27.32 12 28 C10.56047403 26.89847594 9.12345929 25.7936696 7.6875 24.6875 C6.48673828 23.76517578 6.48673828 23.76517578 5.26171875 22.82421875 C3.37122083 21.29941301 1.71235643 19.71235643 0 18 C-0.66 17.67 -1.32 17.34 -2 17 C-1.835 16.46761719 -1.67 15.93523437 -1.5 15.38671875 C-0.88941969 12.47215179 -0.94201619 9.78779439 -1 6.8125 C-1.03747787 4.87536251 -1.04688491 2.93693264 -1 1 C-0.67 0.67 -0.34 0.34 0 0 Z " fill="#101010" transform="translate(78,162)"/>
<path d="M0 0 C1.231394 3.69418201 0.64432764 6.2056261 0 10 C1.32 6.7 2.64 3.4 4 0 C5.13206014 3.39618042 4.91274325 3.74424805 3.625 6.875 C1.48507491 12.7866652 1.27947142 18.76489618 1 25 C0.34 25 -0.32 25 -1 25 C-1.33 25.66 -1.66 26.32 -2 27 C-4.1223207 17.60359625 -3.33947386 8.98477491 0 0 Z " fill="#A6A6A6" transform="translate(73,146)"/>
<path d="M0 0 C3.32459195 3.32459195 3.21839641 7.05940309 3.375 11.625 C3.32009855 18.04062712 1.66444015 22.75093709 -2 28 C-4.8125 30.625 -4.8125 30.625 -7 32 C-7.33 31.34 -7.66 30.68 -8 30 C-7.27931168 28.26379633 -6.55252881 26.52932088 -5.76953125 24.8203125 C-4.82647752 22.58953565 -4.36199988 20.38919922 -4 18 C-3.67 18 -3.34 18 -3 18 C-3 20.31 -3 22.62 -3 25 C-0.09229046 19.31432124 0.3864851 14.89430777 0.1875 8.5625 C0.17396484 7.73556641 0.16042969 6.90863281 0.14648438 6.05664062 C0.11146992 4.0374736 0.05767562 2.01864682 0 0 Z " fill="#B8B8B8" transform="translate(134,156)"/>
<path d="M0 0 C0.66 0.33 1.32 0.66 2 1 C2 1.99 2 2.98 2 4 C2.66 4 3.32 4 4 4 C4.33 3.01 4.66 2.02 5 1 C5.33 1.66 5.66 2.32 6 3 C3.17300407 7.68221201 0.99637103 10.9083069 -4.46484375 12.64453125 C-9.96368338 13.41555499 -15.5148049 12.63942583 -21 12 C-21 11.67 -21 11.34 -21 11 C-19.79601562 10.90203125 -18.59203125 10.8040625 -17.3515625 10.703125 C-15.77594773 10.55306645 -14.20043147 10.40197088 -12.625 10.25 C-11.8309375 10.188125 -11.036875 10.12625 -10.21875 10.0625 C-8.07028665 9.8440122 -6.07519387 9.59951329 -4 9 C-2.41015823 7.19732321 -2.41015823 7.19732321 -2 5 C-1.62875 4.0925 -1.2575 3.185 -0.875 2.25 C-0.441875 1.13625 -0.441875 1.13625 0 0 Z " fill="#404040" transform="translate(91,126)"/>
<path d="M0 0 C6.66500865 -0.59244521 11.86952975 1.51677155 18 4 C17.67 4.99 17.34 5.98 17 7 C17.66 7.66 18.32 8.32 19 9 C16.03664835 9 14.8333467 8.64533932 12.20703125 7.46875 C11.49482422 7.15292969 10.78261719 6.83710938 10.04882812 6.51171875 C9.31083984 6.17785156 8.57285156 5.84398437 7.8125 5.5 C7.06291016 5.16613281 6.31332031 4.83226562 5.54101562 4.48828125 C3.69180144 3.66379085 1.84560434 2.83253959 0 2 C0 1.34 0 0.68 0 0 Z " fill="#050505" transform="translate(110,24)"/>
<path d="M0 0 C0.33 1.32 0.66 2.64 1 4 C0.46375 4.226875 -0.0725 4.45375 -0.625 4.6875 C-3.21090164 6.00288906 -3.21090164 6.00288906 -5.8125 8.5 C-9.00809223 11.27060299 -11.89998627 12.09799698 -16 13 C-16 12.01 -16 11.02 -16 10 C-18.97 9.505 -18.97 9.505 -22 9 C-22 8.67 -22 8.34 -22 8 C-20.20991533 7.77848451 -18.41781838 7.57317787 -16.625 7.375 C-15.62726563 7.25898438 -14.62953125 7.14296875 -13.6015625 7.0234375 C-12.74304688 7.01570312 -11.88453125 7.00796875 -11 7 C-10.34 7.66 -9.68 8.32 -9 9 C-8.91878906 8.39671875 -8.83757812 7.7934375 -8.75390625 7.171875 C-7.76334726 4.31824391 -6.52557989 3.72890279 -3.9375 2.25 C-3.20402344 1.82203125 -2.47054687 1.3940625 -1.71484375 0.953125 C-1.14894531 0.63859375 -0.58304688 0.3240625 0 0 Z " fill="#2E2E2E" transform="translate(93,123)"/>
<path d="M0 0 C0.78890625 0.03609375 1.5778125 0.0721875 2.390625 0.109375 C2.3184375 0.77324219 2.24625 1.43710938 2.171875 2.12109375 C2.0790625 3.00410156 1.98625 3.88710937 1.890625 4.796875 C1.7978125 5.66699219 1.705 6.53710938 1.609375 7.43359375 C1.39902636 10.00660839 1.35343356 12.52921864 1.390625 15.109375 C1.101875 14.490625 0.813125 13.871875 0.515625 13.234375 C-0.54657542 10.97611735 -0.54657542 10.97611735 -2.609375 9.109375 C-4.67811534 8.4668515 -4.67811534 8.4668515 -6.609375 8.109375 C-5.85727755 3.8976293 -4.70754192 0.19732212 0 0 Z " fill="#ADADAD" transform="translate(158.609375,87.890625)"/>
<path d="M0 0 C0.66 0 1.32 0 2 0 C2 0.99 2 1.98 2 3 C2.66 2.34 3.32 1.68 4 1 C3.45276317 4.37462715 2.9451 6.08235 1 9 C-1.40741596 9.66203939 -3.50653965 10 -6 10 C-7.67523395 11.32255312 -9.34106818 12.65705519 -11 14 C-14.59217575 16.39478383 -17.75699978 16.16319232 -22 16 C-22 15.67 -22 15.34 -22 15 C-20.80375 14.7525 -19.6075 14.505 -18.375 14.25 C-12.22220232 12.70908771 -7.8284948 8.97640749 -3 5 C-2.67 5.33 -2.34 5.66 -2 6 C-1.34 4.02 -0.68 2.04 0 0 Z " fill="#A5A5A5" transform="translate(102,127)"/>
<path d="M0 0 C1 3 1 3 0 6 C-0.51350321 13.30754575 -0.61608709 19.52117729 3 26 C3.66 26 4.32 26 5 26 C6.32 28.31 7.64 30.62 9 33 C3.34415338 30.49037109 -0.06105972 26.30467159 -2.375 20.625 C-3.71885386 12.83064759 -3.16917835 7.26270038 0 0 Z " fill="#CACACA" transform="translate(82,154)"/>
<path d="M0 0 C3.85914066 5.78871099 4.26679513 10.19672424 4 17 C2.68 17 1.36 17 0 17 C0 14 0 11 0 8 C-0.33 7.67 -0.66 7.34 -1 7 C-1.125 4 -1.125 4 -1 1 C-0.67 0.67 -0.34 0.34 0 0 Z " fill="#F1F1F1" transform="translate(67,98)"/>
<path d="M0 0 C8.50868923 1.37236923 16.04149323 4.56096849 22 11 C21.67 11.66 21.34 12.32 21 13 C17.47780679 12.41685543 15.83851658 11.16056026 13.3125 8.6875 C9.25908226 4.97759223 5.11702893 2.90704087 0 1 C0 0.67 0 0.34 0 0 Z " fill="#949494" transform="translate(121,25)"/>
<path d="M0 0 C2 1 2 1 4 4 C9.29105436 9.23521209 15.41506191 14.08061356 23 15 C23 15.33 23 15.66 23 16 C17.29179642 16.57082036 13.82324999 14.67524392 9 12 C8.30519531 11.67386719 7.61039062 11.34773437 6.89453125 11.01171875 C4.11419251 9.52696053 2.74841056 7.59247083 1 5 C0.25 2.1875 0.25 2.1875 0 0 Z " fill="#888888" transform="translate(116,127)"/>
<path d="M0 0 C-0.66 5.61 -1.32 11.22 -2 17 C-4.63177237 14.36822763 -4.47925475 12.72819773 -4.8125 9.0625 C-4.92207031 8.00160156 -5.03164062 6.94070312 -5.14453125 5.84765625 C-5 3 -5 3 -3.63671875 1.12109375 C-2 0 -2 0 0 0 Z " fill="#0F0F0F" transform="translate(77,89)"/>
<path d="M0 0 C0.33 0.66 0.66 1.32 1 2 C2.32 1.67 3.64 1.34 5 1 C4.67 2.32 4.34 3.64 4 5 C1.525 4.505 1.525 4.505 -1 4 C-1 4.66 -1 5.32 -1 6 C-2.41623216 6.05447047 -3.83308191 6.09300508 -5.25 6.125 C-6.03890625 6.14820313 -6.8278125 6.17140625 -7.640625 6.1953125 C-10.20731941 5.9828378 -11.7916067 5.28654105 -14 4 C-14 3.34 -14 2.68 -14 2 C-9.38 2 -4.76 2 0 2 C0 1.34 0 0.68 0 0 Z " fill="#B7B7B7" transform="translate(80,127)"/>
<path d="M0 0 C3.05675241 4.58512862 3.11219208 7.77106324 3.0625 13.1875 C3.05347656 14.45980469 3.04445312 15.73210937 3.03515625 17.04296875 C3.02355469 18.01878906 3.01195312 18.99460938 3 20 C2.01 20.33 1.02 20.66 0 21 C0 14.07 0 7.14 0 0 Z " fill="#939393" transform="translate(143,150)"/>
<path d="M0 0 C2.96358359 0.41352329 5.6081608 0.83501508 8.375 2 C11.90969795 3.3465516 15.23934616 3.61756063 19 4 C19 4.33 19 4.66 19 5 C17.58456585 5.19658808 16.16755969 5.38187546 14.75 5.5625 C13.96109375 5.66691406 13.1721875 5.77132812 12.359375 5.87890625 C9.98703547 6.0006654 8.27893574 5.57947298 6 5 C5.01 5.495 5.01 5.495 4 6 C2.62437146 4.71034824 1.29233607 3.37310707 0 2 C0 1.34 0 0.68 0 0 Z " fill="#505050" transform="translate(130,127)"/>
<path d="M0 0 C0.66 0 1.32 0 2 0 C2 1.32 2 2.64 2 4 C2.99 4.33 3.98 4.66 5 5 C4.55090939 6.48199902 4.09043436 7.96055236 3.625 9.4375 C3.24214844 10.67306641 3.24214844 10.67306641 2.8515625 11.93359375 C2 14 2 14 0 15 C0 10.05 0 5.1 0 0 Z " fill="#343434" transform="translate(130,167)"/>
<path d="M0 0 C1.10400204 3.31200613 0.8093437 3.80252241 0 7 C0.00826935 10.08033259 0.12847523 13.1451901 0.2578125 16.22265625 C0 19 0 19 -1.5078125 20.87109375 C-2.24644531 21.42990234 -2.24644531 21.42990234 -3 22 C-3.36801906 14.06714481 -2.77476512 7.4654395 0 0 Z " fill="#939393" transform="translate(73,146)"/>
<path d="M0 0 C2.375 0.9375 2.375 0.9375 4.375 4.9375 C0.745 4.9375 -2.885 4.9375 -6.625 4.9375 C-6.625 2.9375 -6.625 2.9375 -4.9375 1.25 C-2.625 -0.0625 -2.625 -0.0625 0 0 Z " fill="#EBEBEB" transform="translate(110.625,134.0625)"/>
<path d="M0 0 C1.98 0.99 1.98 0.99 4 2 C4.05416188 3.60379341 4.09286638 5.20811406 4.125 6.8125 C4.14820313 7.70582031 4.17140625 8.59914063 4.1953125 9.51953125 C4 12 4 12 2 15 C0.53329887 9.77487721 -0.22577402 5.4185766 0 0 Z " fill="#080808" transform="translate(144,89)"/>
<path d="M0 0 C1.21236328 0.02707031 1.21236328 0.02707031 2.44921875 0.0546875 C3.37154297 0.08949219 3.37154297 0.08949219 4.3125 0.125 C3 2.625 3 2.625 1.3125 5.125 C0.3225 5.125 -0.6675 5.125 -1.6875 5.125 C-1.6875 3.805 -1.6875 2.485 -1.6875 1.125 C-3.0075 1.455 -4.3275 1.785 -5.6875 2.125 C-6.0175 5.425 -6.3475 8.725 -6.6875 12.125 C-7.0175 12.125 -7.3475 12.125 -7.6875 12.125 C-7.76840971 10.50081255 -7.82664995 8.87548255 -7.875 7.25 C-7.90980469 6.34507813 -7.94460937 5.44015625 -7.98046875 4.5078125 C-7.88378906 3.72148438 -7.78710938 2.93515625 -7.6875 2.125 C-4.48369983 -0.01086678 -3.66810033 -0.10632175 0 0 Z " fill="#DCDCDC" transform="translate(78.6875,87.875)"/>
<path d="M0 0 C0.33 0 0.66 0 1 0 C1.06058594 0.81984375 1.12117188 1.6396875 1.18359375 2.484375 C1.26738281 3.56203125 1.35117188 4.6396875 1.4375 5.75 C1.51871094 6.81734375 1.59992188 7.8846875 1.68359375 8.984375 C1.94090773 11.43679962 2.31812218 13.63921291 3 16 C2.01 16 1.02 16 0 16 C-0.99 13.03 -1.98 10.06 -3 7 C-2.01 7 -1.02 7 0 7 C0 4.69 0 2.38 0 0 Z " fill="#646464" transform="translate(84,164)"/>
<path d="M0 0 C1.6396875 0.4640625 1.6396875 0.4640625 3.3125 0.9375 C8.48276323 2.2463099 13.69261392 2.62926347 19 3 C19 3.33 19 3.66 19 4 C17.35 4.33 15.7 4.66 14 5 C14 5.33 14 5.66 14 6 C8.14311354 6.73211081 4.4958396 4.48028193 0 1 C0 0.67 0 0.34 0 0 Z " fill="#8E8E8E" transform="translate(130,134)"/>
<path d="M0 0 C0.66 0.33 1.32 0.66 2 1 C1.97679688 1.60328125 1.95359375 2.2065625 1.9296875 2.828125 C1.91164063 3.62734375 1.89359375 4.4265625 1.875 5.25 C1.84019531 6.43335937 1.84019531 6.43335937 1.8046875 7.640625 C2.0171622 10.20731941 2.71345895 11.7916067 4 14 C3.34 14 2.68 14 2 14 C2 15.65 2 17.3 2 19 C1.67 19 1.34 19 1 19 C0.690625 17.906875 0.38125 16.81375 0.0625 15.6875 C-0.58337897 13.44592006 -1.2623117 11.2130649 -2 9 C-1.625 7.125 -1.625 7.125 -1 5 C-0.65939189 3.33480481 -0.32441604 1.66842534 0 0 Z " fill="#B2B2B2" transform="translate(65,95)"/>
<path d="M0 0 C1.22602512 3.67807537 0.70295577 5.88243927 0.0625 9.6875 C-0.13214844 10.86699219 -0.32679687 12.04648438 -0.52734375 13.26171875 C-0.68332031 14.16535156 -0.83929688 15.06898438 -1 16 C-3.62370236 12.99754796 -4.36302348 11.22853212 -4.1875 7.25 C-4.16042969 6.45078125 -4.13335937 5.6515625 -4.10546875 4.828125 C-4.07066406 4.22484375 -4.03585938 3.6215625 -4 3 C-3.34 3.66 -2.68 4.32 -2 5 C-1.34 3.35 -0.68 1.7 0 0 Z " fill="#A3A3A3" transform="translate(69,147)"/>
<path d="M0 0 C0.66 0.33 1.32 0.66 2 1 C-1.22714884 4.13223269 -2.92578345 4.98687069 -7.515625 5.04296875 C-11.02522039 4.7765521 -14.50814416 4.4400695 -18 4 C-18 3.67 -18 3.34 -18 3 C-16.95199219 2.86722656 -15.90398437 2.73445312 -14.82421875 2.59765625 C-13.44529222 2.41942765 -12.06638707 2.24103359 -10.6875 2.0625 C-9.65206055 1.93198242 -9.65206055 1.93198242 -8.59570312 1.79882812 C-5.59857712 1.40789865 -2.87549881 0.9584996 0 0 Z " fill="#939393" transform="translate(88,134)"/>
<path d="M0 0 C0 0.66 0 1.32 0 2 C-2.31 2.66 -4.62 3.32 -7 4 C-7 3.01 -7 2.02 -7 1 C-9.97 0.505 -9.97 0.505 -13 0 C-13 -0.33 -13 -0.66 -13 -1 C-4.50632911 -2.25316456 -4.50632911 -2.25316456 0 0 Z " fill="#202020" transform="translate(84,132)"/>
<path d="M0 0 C1.27162597 3.8148779 0.64661571 5.3931275 -1 9 C-3 9.9375 -3 9.9375 -5 10 C-5.66 9.67 -6.32 9.34 -7 9 C-6.401875 8.2575 -5.80375 7.515 -5.1875 6.75 C-3.41826778 4.52582236 -1.69139085 2.28337765 0 0 Z " fill="#010101" transform="translate(149,103)"/>
<path d="M0 0 C0.99 0.33 1.98 0.66 3 1 C3.3690205 11.55808656 3.3690205 11.55808656 1 16 C-0.14077657 12.57767028 -0.09815117 9.91326783 -0.0625 6.3125 C-0.05347656 5.13300781 -0.04445312 3.95351562 -0.03515625 2.73828125 C-0.02355469 1.83464844 -0.01195312 0.93101562 0 0 Z " fill="#080808" transform="translate(149,154)"/>
<path d="M0 0 C4.29 0 8.58 0 13 0 C13 0.66 13 1.32 13 2 C10.11788698 2.96070434 8.30149956 3.10581883 5.3125 3.0625 C4.10013672 3.04896484 4.10013672 3.04896484 2.86328125 3.03515625 C1.94095703 3.01775391 1.94095703 3.01775391 1 3 C0.67 2.01 0.34 1.02 0 0 Z " fill="#181818" transform="translate(129,112)"/>
<path d="M0 0 C0 2.31 0 4.62 0 7 C-1.32 7 -2.64 7 -4 7 C-4 5.02 -4 3.04 -4 1 C-2 0 -2 0 0 0 Z " fill="#FDFDFD" transform="translate(71,108)"/>
<path d="M0 0 C1.60332791 -0.08121924 3.20784026 -0.13929134 4.8125 -0.1875 C6.15248047 -0.23970703 6.15248047 -0.23970703 7.51953125 -0.29296875 C10 0 10 0 13 3 C9.04 3 5.08 3 1 3 C0.67 2.01 0.34 1.02 0 0 Z " fill="#101010" transform="translate(128,89)"/>
<path d="M0 0 C2.97 0 5.94 0 9 0 C8.01 0.495 8.01 0.495 7 1 C7 2.32 7 3.64 7 5 C4.11424181 4.60196439 3.17810487 4.20990931 1.25 1.9375 C0.8375 1.298125 0.425 0.65875 0 0 Z " fill="#E2E2E2" transform="translate(137,88)"/>
<path d="M0 0 C0 3 0 3 -1 6 C-3.375 8.25 -3.375 8.25 -6 10 C-6.99 9.67 -7.98 9.34 -9 9 C-6.03 6.03 -3.06 3.06 0 0 Z " fill="#8A8A8A" transform="translate(125,188)"/>
<path d="M0 0 C0.66 0 1.32 0 2 0 C2 0.99 2 1.98 2 3 C2.66 2.34 3.32 1.68 4 1 C3.45276317 4.37462715 2.9451 6.08235 1 9 C0.34 9 -0.32 9 -1 9 C-0.67 6.03 -0.34 3.06 0 0 Z " fill="#5F5F5F" transform="translate(102,127)"/>
<path d="M0 0 C0.33 0.66 0.66 1.32 1 2 C1.66 2 2.32 2 3 2 C3 3.98 3 5.96 3 8 C1.68 8 0.36 8 -1 8 C-0.67 5.36 -0.34 2.72 0 0 Z " fill="#FDFDFD" transform="translate(150,107)"/>
<path d="M0 0 C1.5625 1.1875 1.5625 1.1875 3 3 C2.6875 5.6875 2.6875 5.6875 2 8 C1.01 8 0.02 8 -1 8 C-1.04241723 5.66705225 -1.04092937 3.33297433 -1 1 C-0.67 0.67 -0.34 0.34 0 0 Z " fill="#EBEBEB" transform="translate(156,96)"/>
<path d="M0 0 C5.20540698 0.96396425 9.59913433 1.87680501 14 5 C13.34 5.66 12.68 6.32 12 7 C8.04 5.02 4.08 3.04 0 1 C0 0.67 0 0.34 0 0 Z " fill="#B4B4B4" transform="translate(121,25)"/>
<path d="M0 0 C2.0625 0.4375 2.0625 0.4375 4 1 C4 1.99 4 2.98 4 4 C3.38125 4.103125 2.7625 4.20625 2.125 4.3125 C-0.36526484 4.87525373 -0.36526484 4.87525373 -2 8 C-1.125 1.125 -1.125 1.125 0 0 Z " fill="#4B4B4B" transform="translate(106,149)"/>
<path d="M0 0 C1.5 1.3125 1.5 1.3125 3 3 C3 6 3 6 2 8 C0.68 7.01 -0.64 6.02 -2 5 C-1.34 3.35 -0.68 1.7 0 0 Z " fill="#464646" transform="translate(128,129)"/>
<path d="M0 0 C-2.34545328 2.34545328 -3.95985838 2.95508888 -7.26171875 3.09765625 C-8.06222656 3.08605469 -8.86273438 3.07445312 -9.6875 3.0625 C-10.89986328 3.04896484 -10.89986328 3.04896484 -12.13671875 3.03515625 C-13.05904297 3.01775391 -13.05904297 3.01775391 -14 3 C-14 2.67 -14 2.34 -14 2 C-11.36 2 -8.72 2 -6 2 C-6 1.34 -6 0.68 -6 0 C-3 -1 -3 -1 0 0 Z " fill="#A5A5A5" transform="translate(155,130)"/>
<path d="M0 0 C1.45922693 0.11409593 2.91740598 0.24165544 4.375 0.375 C5.59316406 0.47941406 5.59316406 0.47941406 6.8359375 0.5859375 C9 1 9 1 11 3 C7.7 3 4.4 3 1 3 C0.67 2.01 0.34 1.02 0 0 Z " fill="#232323" transform="translate(79,112)"/>
<path d="M0 0 C8.57142857 0.85714286 8.57142857 0.85714286 12 3 C8.85000502 4.57499749 6.36459118 3.70833498 3 3 C1.0625 1.4375 1.0625 1.4375 0 0 Z " fill="#4C4C4C" transform="translate(68,46)"/>
<path d="M0 0 C2.9375 0.375 2.9375 0.375 6 1 C6.33 1.66 6.66 2.32 7 3 C5.68 2.67 4.36 2.34 3 2 C2.67 2.99 2.34 3.98 2 5 C0.68 4.34 -0.64 3.68 -2 3 C-1.34 2.34 -0.68 1.68 0 1 C0 0.67 0 0.34 0 0 Z " fill="#707070" transform="translate(82,41)"/>
<path d="M0 0 C0.33 0 0.66 0 1 0 C1 3.63 1 7.26 1 11 C0.01 11.33 -0.98 11.66 -2 12 C-2 10.02 -2 8.04 -2 6 C-1.34 6 -0.68 6 0 6 C0 4.02 0 2.04 0 0 Z " fill="#A4A4A4" transform="translate(145,159)"/>
<path d="M0 0 C0.33 1.98 0.66 3.96 1 6 C0.01 6.33 -0.98 6.66 -2 7 C-2.66 5.02 -3.32 3.04 -4 1 C-2 0 -2 0 0 0 Z " fill="#474747" transform="translate(115,127)"/>
<path d="M0 0 C2.475 0.495 2.475 0.495 5 1 C5 1.66 5 2.32 5 3 C7.64 3 10.28 3 13 3 C13 3.33 13 3.66 13 4 C11.58376784 4.05447047 10.16691809 4.09300508 8.75 4.125 C7.96109375 4.14820313 7.1721875 4.17140625 6.359375 4.1953125 C3.79268059 3.9828378 2.2083933 3.28654105 0 2 C0 1.34 0 0.68 0 0 Z " fill="#A4A4A4" transform="translate(66,129)"/>
<path d="M0 0 C0.639375 0.2475 1.27875 0.495 1.9375 0.75 C2.2675 1.74 2.5975 2.73 2.9375 3.75 C0.76875748 3.24396008 -1.06217627 2.75016187 -3.0625 1.75 C-3.0625 2.41 -3.0625 3.07 -3.0625 3.75 C-2.4025 4.08 -1.7425 4.41 -1.0625 4.75 C-2.0525 5.08 -3.0425 5.41 -4.0625 5.75 C-4.0625 4.1 -4.0625 2.45 -4.0625 0.75 C-2.0625 -0.25 -2.0625 -0.25 0 0 Z " fill="#4C4C4C" transform="translate(135.0625,93.25)"/>
<path d="M0 0 C2 3 2 3 1.625 6.1875 C1.41875 7.115625 1.2125 8.04375 1 9 C0.01 9.33 -0.98 9.66 -2 10 C-1.34 6.7 -0.68 3.4 0 0 Z " fill="#7C7C7C" transform="translate(150,44)"/>
<path d="M0 0 C1.14926266 0.95421808 2.29430541 1.91352045 3.4375 2.875 C4.07558594 3.40867188 4.71367188 3.94234375 5.37109375 4.4921875 C7 6 7 6 8 8 C4.82461668 7.65978036 3.97723135 6.97533396 1.75 4.5625 C0 2 0 2 0 0 Z " fill="#939393" transform="translate(96,190)"/>
<path d="M0 0 C0.268125 0.556875 0.53625 1.11375 0.8125 1.6875 C2.10122647 4.19712523 3.52926478 6.59334236 5 9 C4.01 9 3.02 9 2 9 C0.4375 6.1875 0.4375 6.1875 -1 3 C-0.67 2.01 -0.34 1.02 0 0 Z " fill="#616161" transform="translate(119,98)"/>
<path d="M0 0 C0.763125 0.309375 1.52625 0.61875 2.3125 0.9375 C4.18789677 1.67893593 6.08684652 2.36228217 8 3 C8 3.66 8 4.32 8 5 C4.62537285 4.45276317 2.91765 3.9451 0 2 C0 1.34 0 0.68 0 0 Z " fill="#565656" transform="translate(123,107)"/>
</svg>
